<svg width="16" height="16" viewBox="0 0 16 16" fill="none" xmlns="http://www.w3.org/2000/svg">
<path d="M9.93975 8.16166L4.91795 13.1835C4.78547 13.3159 4.72094 13.4719 4.72436 13.6514C4.72778 13.8309 4.79574 13.9869 4.92821 14.1193C5.06068 14.2518 5.21666 14.3181 5.39615 14.3181C5.57563 14.3181 5.73161 14.2518 5.86408 14.1193L10.9782 9.0155C11.0987 8.89499 11.188 8.75995 11.2461 8.61038C11.3043 8.4608 11.3333 8.31123 11.3333 8.16166C11.3333 8.0121 11.3043 7.86252 11.2461 7.71295C11.188 7.56338 11.0987 7.42834 10.9782 7.30783L5.86408 2.19373C5.73161 2.06125 5.57392 1.99672 5.39101 2.00013C5.20811 2.00355 5.05042 2.0715 4.91795 2.20398C4.78547 2.33646 4.71923 2.49243 4.71923 2.67191C4.71923 2.8514 4.78547 3.00738 4.91795 3.13986L9.93975 8.16166Z" fill="#969696"/>
</svg>
