<svg width="38" height="38" viewBox="0 0 38 38" fill="none" xmlns="http://www.w3.org/2000/svg">
<path d="M17.2188 33.25C24.1051 33.25 29.6875 27.4017 29.6875 20.1875C29.6875 12.9733 24.1051 7.125 17.2188 7.125C10.3324 7.125 4.75 12.9733 4.75 20.1875C4.75 22.9628 5.57617 25.536 6.98492 27.6518L6.53125 32.006L10.6875 31.3168C12.5869 32.5428 14.824 33.25 17.2188 33.25Z" fill="#D2F0DF"/>
<path d="M22.9583 5.3108C22.5709 5.19876 22.1778 5.10293 21.78 5.02382C19.0158 4.47398 16.1506 4.75617 13.5468 5.83472C10.9429 6.91327 8.71737 8.73973 7.15156 11.0831C5.58575 13.4265 4.75 16.1816 4.75 19C4.75 21.28 5.28517 23.4333 6.23833 25.3444C6.95558 26.7868 5.95808 28.7328 5.57808 30.153C5.4939 30.4671 5.49388 30.7979 5.57804 31.112C5.6622 31.4261 5.82757 31.7125 6.05752 31.9425C6.28747 32.1724 6.5739 32.3378 6.88802 32.422C7.20214 32.5061 7.53289 32.5061 7.847 32.4219C9.26725 32.0419 11.2132 31.0444 12.6556 31.7633C14.6272 32.7422 16.7987 33.2511 19 33.25C21.8184 33.25 24.5735 32.4143 26.9169 30.8484C29.2603 29.2826 31.0867 27.0571 32.1653 24.4532C33.2438 21.8494 33.526 18.9842 32.9762 16.22C32.9135 15.9046 32.8402 15.5921 32.7567 15.2831" stroke="#494949" stroke-width="2.23529" stroke-linecap="round" stroke-linejoin="round"/>
<path d="M27.6542 3.83566C27.9872 2.69247 29.3334 2.65785 29.7282 3.73179L29.7616 3.83631L30.2109 5.37798C30.3139 5.73154 30.4803 6.05508 30.6989 6.32678C30.9175 6.59847 31.1832 6.81201 31.4781 6.95297L31.5989 7.00588L32.9129 7.5324C33.8872 7.92305 33.9167 9.5026 33.002 9.96576L32.9129 10.005L31.5989 10.5321C31.2975 10.6529 31.0216 10.8481 30.7899 11.1045C30.5583 11.361 30.3762 11.6728 30.256 12.0189L30.2109 12.16L29.7621 13.7024C29.4292 14.8455 28.0829 14.8802 27.6888 13.8069L27.6542 13.7024L27.2055 12.1607C27.1026 11.807 26.9362 11.4833 26.7176 11.2115C26.499 10.9397 26.2333 10.7261 25.9383 10.585L25.818 10.5321L24.5041 10.0056C23.5292 9.61496 23.4997 8.0354 24.415 7.5729L24.5041 7.5324L25.818 7.00588C26.1194 6.88507 26.3951 6.68984 26.6267 6.43335C26.8583 6.17687 27.0402 5.86511 27.1604 5.51908L27.2055 5.37798L27.6542 3.83566ZM33.1623 1.58325C33.2665 1.58325 33.3685 1.61753 33.4569 1.6822C33.5453 1.74687 33.6165 1.83933 33.6623 1.94907L33.689 2.0255L33.8839 2.69574L34.4557 2.92437C34.5601 2.96598 34.6516 3.04302 34.7186 3.14571C34.7856 3.2484 34.8252 3.37212 34.8322 3.50121C34.8392 3.63029 34.8135 3.75892 34.7581 3.8708C34.7028 3.98267 34.6204 4.07275 34.5214 4.12962L34.4557 4.16098L33.8844 4.38962L33.6896 5.0605C33.654 5.18294 33.5883 5.29025 33.5008 5.36883C33.4132 5.44741 33.3078 5.49373 33.1977 5.50192C33.0877 5.5101 32.9781 5.47979 32.8828 5.41481C32.7875 5.34984 32.7108 5.25313 32.6623 5.13693L32.6356 5.0605L32.4407 4.39027L31.8689 4.16163C31.7646 4.12002 31.6731 4.04299 31.606 3.9403C31.539 3.83761 31.4995 3.71388 31.4924 3.5848C31.4854 3.45571 31.5112 3.32708 31.5665 3.21521C31.6218 3.10334 31.7042 3.01326 31.8032 2.95638L31.8689 2.92503L32.4402 2.69639L32.6351 2.0255C32.6726 1.89644 32.7436 1.78439 32.8382 1.70508C32.9327 1.62577 33.0461 1.58317 33.1623 1.58325Z" fill="#494949"/>
</svg>
