<svg width="24" height="24" viewBox="0 0 24 24" fill="none" xmlns="http://www.w3.org/2000/svg">
<path d="M14.5 3.35419C14.2553 3.28343 14.007 3.2229 13.7558 3.17294C12.01 2.82567 10.2004 3.0039 8.55585 3.68509C6.91131 4.36628 5.50571 5.51983 4.51677 6.99987C3.52784 8.47991 3 10.22 3 12C3 13.44 3.338 14.8 3.94 16.007C4.393 16.918 3.763 18.147 3.523 19.044C3.46983 19.2424 3.46982 19.4513 3.52297 19.6497C3.57613 19.8481 3.68057 20.029 3.8258 20.1742C3.97103 20.3194 4.15194 20.4239 4.35033 20.477C4.54872 20.5302 4.75761 20.5302 4.956 20.477C5.853 20.237 7.082 19.607 7.993 20.061C9.23821 20.6793 10.6097 21.0007 12 21C13.78 21 15.5201 20.4722 17.0001 19.4832C18.4802 18.4943 19.6337 17.0887 20.3149 15.4442C20.9961 13.7996 21.1743 11.99 20.8271 10.2442C20.7874 10.045 20.7412 9.84766 20.6885 9.65248" stroke="#494949" stroke-width="1.41176" stroke-linecap="round" stroke-linejoin="round"/>
<path d="M17.4658 2.42257C17.6761 1.70056 18.5264 1.67869 18.7757 2.35697L18.7968 2.42299L19.0806 3.39667C19.1456 3.61997 19.2507 3.82431 19.3888 3.99591C19.5268 4.16751 19.6946 4.30237 19.8809 4.3914L19.9572 4.42482L20.7871 4.75736C21.4025 5.00408 21.4211 6.0017 20.8433 6.29422L20.7871 6.31897L19.9572 6.65192C19.7668 6.72817 19.5926 6.85146 19.4463 7.01345C19.3 7.17544 19.185 7.37237 19.1091 7.59095L19.0806 7.68007L18.7971 8.65417C18.5869 9.37618 17.7366 9.39805 17.4876 8.72018L17.4658 8.65417L17.1824 7.68048C17.1174 7.4571 17.0124 7.25268 16.8743 7.08101C16.7362 6.90934 16.5684 6.77441 16.3821 6.68534L16.3061 6.65192L15.4763 6.31938C14.8605 6.07266 14.8419 5.07504 15.42 4.78294L15.4763 4.75736L16.3061 4.42482C16.4964 4.34852 16.6706 4.22521 16.8169 4.06322C16.9631 3.90123 17.0781 3.70433 17.1539 3.48579L17.1824 3.39667L17.4658 2.42257ZM20.9446 1C21.0104 1 21.0749 1.02165 21.1307 1.06249C21.1865 1.10334 21.2314 1.16173 21.2604 1.23104L21.2773 1.27932L21.4003 1.70262L21.7615 1.84703C21.8274 1.8733 21.8852 1.92196 21.9275 1.98681C21.9699 2.05167 21.9948 2.12981 21.9993 2.21134C22.0037 2.29287 21.9874 2.37411 21.9525 2.44476C21.9175 2.51542 21.8655 2.57231 21.803 2.60823L21.7615 2.62804L21.4007 2.77244L21.2776 3.19616C21.2552 3.27349 21.2137 3.34126 21.1584 3.39089C21.1031 3.44052 21.0365 3.46978 20.967 3.47495C20.8975 3.48012 20.8283 3.46097 20.7681 3.41993C20.7079 3.3789 20.6594 3.31781 20.6288 3.24443L20.612 3.19616L20.4889 2.77285L20.1278 2.62845C20.0618 2.60217 20.004 2.55352 19.9617 2.48866C19.9194 2.4238 19.8944 2.34566 19.8899 2.26413C19.8855 2.18261 19.9018 2.10137 19.9367 2.03071C19.9717 1.96005 20.0237 1.90316 20.0863 1.86724L20.1278 1.84744L20.4885 1.70303L20.6116 1.27932C20.6353 1.1978 20.6802 1.12704 20.7399 1.07695C20.7996 1.02685 20.8712 0.999948 20.9446 1Z" fill="#494949"/>
</svg>
