<svg width="32" height="32" viewBox="0 0 32 32" fill="none" xmlns="http://www.w3.org/2000/svg">
<rect width="32" height="32" rx="16" fill="#D5EFEA"/>
<path d="M11.4168 22.6666C10.1529 22.6666 9.07322 22.2291 8.17766 21.3541C7.28211 20.4791 6.83405 19.4096 6.8335 18.1458C6.8335 17.0624 7.15988 16.0971 7.81266 15.2499C8.46544 14.4027 9.31961 13.861 10.3752 13.6249C10.7224 12.3471 11.4168 11.3124 12.4585 10.5208C13.5002 9.72909 14.6807 9.33325 16.0002 9.33325C17.6252 9.33325 19.0038 9.89936 20.136 11.0316C21.2682 12.1638 21.8341 13.5421 21.8335 15.1666C22.7918 15.2777 23.5871 15.691 24.2193 16.4066C24.8516 17.1221 25.1674 17.9588 25.1668 18.9166C25.1668 19.9583 24.8024 20.8438 24.0735 21.5733C23.3446 22.3027 22.4591 22.6671 21.4168 22.6666H11.4168Z" fill="#06D18D"/>
</svg>
