<svg width="38" height="38" viewBox="0 0 38 38" fill="none" xmlns="http://www.w3.org/2000/svg">
<g clip-path="url(#clip0_1340_11803)">
<ellipse cx="24.225" cy="12.35" rx="9.975" ry="9.5" fill="#FFEDB6"/>
<path d="M25.7855 14.9286V9.50004M1.35693 29.8572L7.99065 35.3835C8.96581 36.1967 10.1952 36.6423 11.4649 36.6429H28.9531C30.2016 36.6429 31.2141 35.6305 31.2141 34.3819C31.2141 31.8848 29.1892 29.8572 26.6894 29.8572H14.5321M25.7855 23.0715C28.665 23.0715 31.4266 21.9276 33.4627 19.8915C35.4988 17.8554 36.6426 15.0938 36.6426 12.2143C36.6426 9.33483 35.4988 6.57327 33.4627 4.53716C31.4266 2.50105 28.665 1.35718 25.7855 1.35718C22.906 1.35718 20.1445 2.50105 18.1083 4.53716C16.0722 6.57327 14.9284 9.33483 14.9284 12.2143C14.9284 15.0938 16.0722 17.8554 18.1083 19.8915C20.1445 21.9276 22.906 23.0715 25.7855 23.0715Z" stroke="#494949" stroke-width="2" stroke-linecap="round" stroke-linejoin="round"/>
<path d="M9.49979 27.1429L11.5355 29.1786C12.0754 29.7185 12.8077 30.0218 13.5712 30.0218C14.3348 30.0218 15.067 29.7185 15.6069 29.1786C16.1468 28.6387 16.4502 27.9064 16.4502 27.1429C16.4502 26.3794 16.1468 25.6471 15.6069 25.1072L12.4475 21.9478C11.4297 20.9296 10.0491 20.3575 8.6095 20.3572H1.35693" stroke="#494949" stroke-width="2" stroke-linecap="round" stroke-linejoin="round"/>
</g>
<defs>
<clipPath id="clip0_1340_11803">
<rect width="38" height="38" fill="white"/>
</clipPath>
</defs>
</svg>
