<svg width="14" height="14" viewBox="0 0 14 14" fill="none" xmlns="http://www.w3.org/2000/svg">
<g clip-path="url(#clip0_1352_12499)">
<path d="M9.5 5.5V3.5M0.5 11L2.944 13.036C3.30327 13.3356 3.7562 13.4998 4.224 13.5H10.667C11.127 13.5 11.5 13.127 11.5 12.667C11.5 11.747 10.754 11 9.833 11H5.354M9.5 8.5C10.5609 8.5 11.5783 8.07857 12.3284 7.32843C13.0786 6.57828 13.5 5.56087 13.5 4.5C13.5 3.43913 13.0786 2.42172 12.3284 1.67157C11.5783 0.921427 10.5609 0.5 9.5 0.5C8.43913 0.5 7.42172 0.921427 6.67157 1.67157C5.92143 2.42172 5.5 3.43913 5.5 4.5C5.5 5.56087 5.92143 6.57828 6.67157 7.32843C7.42172 8.07857 8.43913 8.5 9.5 8.5Z" stroke="#FAF9F6" stroke-linecap="round" stroke-linejoin="round"/>
<path d="M3.5 10L4.25 10.75C4.44891 10.9489 4.7187 11.0607 5 11.0607C5.2813 11.0607 5.55109 10.9489 5.75 10.75C5.94891 10.5511 6.06066 10.2813 6.06066 10C6.06066 9.7187 5.94891 9.44891 5.75 9.25L4.586 8.086C4.21101 7.7109 3.70239 7.50011 3.172 7.5H0.5" stroke="#FAF9F6" stroke-linecap="round" stroke-linejoin="round"/>
</g>
<defs>
<clipPath id="clip0_1352_12499">
<rect width="14" height="14" fill="white"/>
</clipPath>
</defs>
</svg>
