<svg width="24" height="24" viewBox="0 0 24 24" fill="none" xmlns="http://www.w3.org/2000/svg">
<path d="M14.6923 10.3846V8.23077M5 16.3077L7.632 18.5003C8.01891 18.823 8.50668 18.9998 9.01046 19H15.9491C16.4445 19 16.8462 18.5983 16.8462 18.1029C16.8462 17.1122 16.0428 16.3077 15.0509 16.3077H10.2274M14.6923 13.6154C15.8348 13.6154 16.9305 13.1615 17.7383 12.3537C18.5462 11.5458 19 10.4502 19 9.30769C19 8.16522 18.5462 7.06954 17.7383 6.26169C16.9305 5.45384 15.8348 5 14.6923 5C13.5498 5 12.4542 5.45384 11.6463 6.26169C10.8385 7.06954 10.3846 8.16522 10.3846 9.30769C10.3846 10.4502 10.8385 11.5458 11.6463 12.3537C12.4542 13.1615 13.5498 13.6154 14.6923 13.6154Z" stroke="#494949" stroke-width="1.25" stroke-linecap="round" stroke-linejoin="round"/>
<path d="M8.23077 15.2308L9.03846 16.0385C9.25267 16.2527 9.54321 16.373 9.84615 16.373C10.1491 16.373 10.4396 16.2527 10.6538 16.0385C10.8681 15.8242 10.9884 15.5337 10.9884 15.2308C10.9884 14.9278 10.8681 14.6373 10.6538 14.4231L9.40031 13.1695C8.99648 12.7656 8.44873 12.5386 7.87754 12.5385H5" stroke="#494949" stroke-width="1.25" stroke-linecap="round" stroke-linejoin="round"/>
</svg>
