<svg width="24" height="24" viewBox="0 0 24 24" fill="none" xmlns="http://www.w3.org/2000/svg">
<path d="M7.47059 8.29419H6.64706C6.21023 8.29419 5.7913 8.46772 5.48241 8.7766C5.17353 9.08548 5 9.50441 5 9.94124V17.353C5 17.7898 5.17353 18.2087 5.48241 18.5176C5.7913 18.8265 6.21023 19 6.64706 19H14.0588C14.4957 19 14.9146 18.8265 15.2235 18.5176C15.5324 18.2087 15.7059 17.7898 15.7059 17.353V16.5294" stroke="#494949" stroke-width="1.25" stroke-linecap="round" stroke-linejoin="round"/>
<path d="M14.8824 6.64714L17.353 9.11771M18.4936 7.95242C18.8179 7.62808 19.0001 7.18818 19.0001 6.72949C19.0001 6.2708 18.8179 5.8309 18.4936 5.50656C18.1692 5.18221 17.7293 5 17.2706 5C16.8119 5 16.372 5.18221 16.0477 5.50656L9.11768 12.4118V14.8824H11.5883L18.4936 7.95242Z" stroke="#494949" stroke-width="1.25" stroke-linecap="round" stroke-linejoin="round"/>
</svg>
