<svg width="32" height="32" viewBox="0 0 32 32" fill="none" xmlns="http://www.w3.org/2000/svg">
<rect width="32" height="32" rx="16" fill="#FFF0C2"/>
<path d="M22.53 14.7384C22.511 14.8832 22.4502 15.0193 22.355 15.13L14.23 24.055C14.127 24.1882 13.9838 24.2846 13.8217 24.33C13.7522 24.3384 13.6828 24.3384 13.6133 24.33C13.4954 24.3295 13.379 24.3039 13.2717 24.255C13.1046 24.1766 12.9714 24.0405 12.8967 23.8717C12.824 23.7216 12.8035 23.5515 12.8383 23.3884L13.555 17.6717H10.53C10.3571 17.661 10.1876 17.6186 10.03 17.5467C9.87572 17.4655 9.74352 17.3479 9.6448 17.2042C9.54608 17.0604 9.4838 16.8949 9.46333 16.7217C9.44584 16.5459 9.47159 16.3686 9.53833 16.205L12.6883 8.33004C12.7717 8.13087 12.91 7.96004 13.0883 7.83837C13.2668 7.72236 13.4755 7.66149 13.6883 7.66337H19.7217C19.8958 7.66671 20.0667 7.70921 20.2217 7.78837C20.3783 7.87587 20.5125 7.99921 20.6133 8.14671C20.7067 8.29587 20.7633 8.46337 20.78 8.63837C20.7971 8.81219 20.7684 8.98745 20.6967 9.14671L18.705 13.7884H21.7467C21.8978 13.7934 22.0447 13.8395 22.1717 13.9217C22.3055 14.0112 22.4106 14.1375 22.4742 14.2853C22.5377 14.4332 22.5571 14.5964 22.53 14.755V14.7384Z" fill="#FFC310"/>
</svg>
