<svg width="24" height="24" viewBox="0 0 24 24" fill="none" xmlns="http://www.w3.org/2000/svg">
<path d="M6.4 7.38C6.4 7.12009 6.50325 6.87082 6.68704 6.68704C6.87082 6.50325 7.12009 6.4 7.38 6.4H11.72C11.9799 6.4 12.2292 6.50325 12.413 6.68704C12.5967 6.87082 12.7 7.12009 12.7 7.38V9.2C12.7 9.38565 12.7737 9.5637 12.905 9.69497C13.0363 9.82625 13.2143 9.9 13.4 9.9C13.5857 9.9 13.7637 9.82625 13.895 9.69497C14.0262 9.5637 14.1 9.38565 14.1 9.2V7.38C14.1 7.06745 14.0384 6.75797 13.9188 6.46921C13.7992 6.18046 13.6239 5.91809 13.4029 5.69709C13.1819 5.47608 12.9195 5.30077 12.6308 5.18117C12.342 5.06156 12.0325 5 11.72 5H7.38C6.74878 5 6.14342 5.25075 5.69709 5.69709C5.25075 6.14342 5 6.74878 5 7.38V16.62C5 17.2512 5.25075 17.8566 5.69709 18.3029C6.14342 18.7493 6.74878 19 7.38 19H11.72C12.3512 19 12.9566 18.7493 13.4029 18.3029C13.8492 17.8566 14.1 17.2512 14.1 16.62V14.8C14.1 14.6143 14.0262 14.4363 13.895 14.305C13.7637 14.1737 13.5857 14.1 13.4 14.1C13.2143 14.1 13.0363 14.1737 12.905 14.305C12.7737 14.4363 12.7 14.6143 12.7 14.8V16.62C12.7 16.8799 12.5967 17.1292 12.413 17.313C12.2292 17.4967 11.9799 17.6 11.72 17.6H7.38C7.12009 17.6 6.87082 17.4967 6.68704 17.313C6.50325 17.1292 6.4 16.8799 6.4 16.62V7.38Z" fill="#E24F49"/>
<path d="M15.7049 9.40515C15.8362 9.27392 16.0142 9.2002 16.1998 9.2002C16.3854 9.2002 16.5634 9.27392 16.6947 9.40515L18.7947 11.5051C18.9259 11.6364 18.9997 11.8144 18.9997 12C18.9997 12.1857 18.9259 12.3637 18.7947 12.4949L16.6947 14.5949C16.5627 14.7225 16.3859 14.793 16.2023 14.7914C16.0188 14.7898 15.8432 14.7162 15.7134 14.5864C15.5836 14.4566 15.51 14.2811 15.5084 14.0975C15.5068 13.914 15.5774 13.7372 15.7049 13.6051L16.61 12.7H8.4998C8.31415 12.7 8.13611 12.6263 8.00483 12.495C7.87355 12.3637 7.7998 12.1857 7.7998 12C7.7998 11.8144 7.87355 11.6363 8.00483 11.5051C8.13611 11.3738 8.31415 11.3 8.4998 11.3H16.61L15.7049 10.3949C15.5737 10.2637 15.5 10.0857 15.5 9.90005C15.5 9.71443 15.5737 9.53642 15.7049 9.40515Z" fill="#E24F49"/>
</svg>
