<svg width="20" height="20" viewBox="0 0 20 20" fill="none" xmlns="http://www.w3.org/2000/svg">
<path d="M9.1665 15C9.1665 15.4602 9.5396 15.8333 9.99984 15.8333C10.4601 15.8333 10.8332 15.4602 10.8332 15C10.8332 14.5397 10.4601 14.1666 9.99984 14.1666C9.5396 14.1666 9.1665 14.5397 9.1665 15Z" fill="#B0A9A9"/>
<path d="M9.1665 9.99996C9.1665 10.4602 9.5396 10.8333 9.99984 10.8333C10.4601 10.8333 10.8332 10.4602 10.8332 9.99996C10.8332 9.53972 10.4601 9.16663 9.99984 9.16663C9.5396 9.16663 9.1665 9.53972 9.1665 9.99996Z" fill="#B0A9A9"/>
<path d="M9.1665 4.99996C9.1665 5.4602 9.5396 5.83329 9.99984 5.83329C10.4601 5.83329 10.8332 5.4602 10.8332 4.99996C10.8332 4.53972 10.4601 4.16663 9.99984 4.16663C9.5396 4.16663 9.1665 4.53972 9.1665 4.99996Z" fill="#B0A9A9"/>
<path d="M9.1665 15C9.1665 15.4602 9.5396 15.8333 9.99984 15.8333C10.4601 15.8333 10.8332 15.4602 10.8332 15C10.8332 14.5397 10.4601 14.1666 9.99984 14.1666C9.5396 14.1666 9.1665 14.5397 9.1665 15Z" stroke="#B0A9A9" stroke-width="0.833333" stroke-linecap="round" stroke-linejoin="round"/>
<path d="M9.1665 9.99996C9.1665 10.4602 9.5396 10.8333 9.99984 10.8333C10.4601 10.8333 10.8332 10.4602 10.8332 9.99996C10.8332 9.53972 10.4601 9.16663 9.99984 9.16663C9.5396 9.16663 9.1665 9.53972 9.1665 9.99996Z" stroke="#B0A9A9" stroke-width="0.833333" stroke-linecap="round" stroke-linejoin="round"/>
<path d="M9.1665 4.99996C9.1665 5.4602 9.5396 5.83329 9.99984 5.83329C10.4601 5.83329 10.8332 5.4602 10.8332 4.99996C10.8332 4.53972 10.4601 4.16663 9.99984 4.16663C9.5396 4.16663 9.1665 4.53972 9.1665 4.99996Z" stroke="#B0A9A9" stroke-width="0.833333" stroke-linecap="round" stroke-linejoin="round"/>
</svg>
