<svg width="28" height="38" viewBox="0 0 28 38" fill="none" xmlns="http://www.w3.org/2000/svg">
<rect x="0.850098" y="4.97485" width="15.8655" height="23.2316" fill="#B6D0FF"/>
<path d="M4.36621 0.727539H14.333C16.3422 0.727803 17.9707 2.35695 17.9707 4.36621V28.498C17.9707 30.5073 16.3422 32.1365 14.333 32.1367H4.36621C2.46739 32.1367 0.90904 30.6818 0.743164 28.8262H16.1484C16.5503 28.8262 16.876 28.5005 16.876 28.0986C16.8759 27.6969 16.5502 27.3711 16.1484 27.3711H0.727539V5.98633H16.1484C16.5503 5.98633 16.876 5.6597 16.876 5.25781C16.8757 4.85614 16.5502 4.53027 16.1484 4.53027H0.727539V4.36621C0.727539 2.35679 2.35679 0.727539 4.36621 0.727539Z" stroke="#494949" stroke-width="1.45535" stroke-linecap="round"/>
<rect x="13.3159" y="19.1405" width="13.599" height="17.5653" fill="#FFEDB6"/>
<path d="M24.7319 17.8459C26.3392 17.846 27.6416 19.149 27.6421 20.7561V36.7053C27.6421 37.1072 27.3164 37.4329 26.9146 37.4329C26.5128 37.4327 26.187 37.1071 26.187 36.7053V20.7561C26.1866 19.9527 25.5354 19.3011 24.7319 19.301H15.4985C14.6953 19.3013 14.0439 19.9529 14.0435 20.7561V36.3508C14.094 36.3856 14.1414 36.4148 14.1929 36.4397C14.306 36.4944 14.4658 36.5442 14.7329 36.5442C14.9811 36.5441 15.1383 36.4963 15.2583 36.4387C15.3938 36.3737 15.5105 36.2844 15.6948 36.137C15.8645 36.0012 16.1029 35.8077 16.4097 35.6604C16.7323 35.5056 17.1062 35.4114 17.5659 35.4114C18.035 35.4114 18.4139 35.5037 18.7397 35.6614C19.0507 35.8119 19.2847 36.0108 19.4478 36.1467C19.6245 36.294 19.7311 36.3778 19.8589 36.4397C19.972 36.4944 20.1317 36.5442 20.3989 36.5442C20.6473 36.5442 20.8053 36.4963 20.9253 36.4387C21.0606 36.3737 21.1767 36.2843 21.3608 36.137C21.5305 36.0012 21.7689 35.8077 22.0757 35.6604C22.3983 35.5056 22.7723 35.4114 23.2319 35.4114C23.7011 35.4114 24.0798 35.5037 24.4058 35.6614C24.7167 35.8119 24.9507 36.0108 25.1138 36.1467C25.4224 36.4039 25.4645 36.8624 25.2075 37.1711C24.9502 37.4799 24.4909 37.5222 24.1821 37.2649C24.0055 37.1177 23.8998 37.0328 23.772 36.9709C23.6589 36.9162 23.4991 36.8665 23.2319 36.8665C22.9835 36.8665 22.8256 36.9143 22.7056 36.9719C22.5701 37.037 22.4542 37.1263 22.27 37.2737C22.1003 37.4095 21.8613 37.6038 21.5542 37.7512C21.2317 37.9059 20.8584 38.0002 20.3989 38.0002C19.9298 38.0002 19.551 37.9079 19.2251 37.7502C18.914 37.5997 18.6792 37.4008 18.5161 37.2649C18.3395 37.1177 18.2337 37.0328 18.106 36.9709C17.9929 36.9163 17.8329 36.8665 17.5659 36.8665C17.3176 36.8665 17.1596 36.9144 17.0396 36.9719C16.9041 37.0369 16.7881 37.1264 16.604 37.2737C16.4342 37.4095 16.1953 37.6038 15.8882 37.7512C15.5657 37.906 15.1923 38.0002 14.7329 38.0002C14.2636 38.0002 13.8841 37.908 13.5581 37.7502C13.2472 37.5997 13.0132 37.4008 12.8501 37.2649C12.8409 37.2572 12.8335 37.2476 12.8247 37.2395C12.8086 37.2246 12.7936 37.2089 12.7788 37.1926C12.7606 37.1725 12.7427 37.1527 12.7271 37.1311C12.7151 37.1146 12.7054 37.0968 12.6948 37.0793C12.681 37.0563 12.6678 37.0333 12.6567 37.009C12.6479 36.9899 12.6405 36.9704 12.6333 36.9504C12.6254 36.9281 12.6175 36.906 12.6118 36.8831C12.6059 36.8594 12.6017 36.8353 12.5981 36.8108C12.5946 36.7861 12.5924 36.7615 12.5913 36.7366C12.5909 36.7263 12.5884 36.7157 12.5884 36.7053V20.7561C12.5888 19.1491 13.8915 17.8462 15.4985 17.8459H24.7319ZM22.3823 30.3118C22.7839 30.312 23.1096 30.6378 23.1099 31.0393C23.1098 31.441 22.784 31.7666 22.3823 31.7668H16.1792C15.7774 31.7668 15.4517 31.4411 15.4517 31.0393C15.4519 30.6376 15.7775 30.3118 16.1792 30.3118H22.3823ZM24.5288 26.6282C24.9304 26.6282 25.2559 26.9542 25.2563 27.3557C25.2563 27.7576 24.9307 28.0842 24.5288 28.0842H16.1792C15.7773 28.0842 15.4517 27.7576 15.4517 27.3557C15.4521 26.9542 15.7776 26.6282 16.1792 26.6282H24.5288ZM19.519 22.6624C19.9207 22.6624 20.2463 22.9882 20.2466 23.3899C20.2465 23.7917 19.9209 24.1174 19.519 24.1174H16.1792C15.7774 24.1174 15.4517 23.7917 15.4517 23.3899C15.4519 22.9882 15.7775 22.6624 16.1792 22.6624H19.519Z" fill="#494949"/>
</svg>
