<svg width="14" height="14" viewBox="0 0 14 14" fill="none" xmlns="http://www.w3.org/2000/svg">
<path d="M10.9379 7.00012C11.1793 7.00012 11.3774 6.80395 11.3532 6.5637C11.3182 6.21603 11.2413 5.87406 11.1243 5.54527C11.0214 5.25626 10.6562 5.19991 10.4394 5.4169C10.3081 5.54824 10.2725 5.74532 10.3299 5.92191C10.3977 6.13083 10.4456 6.34561 10.473 6.56338C10.503 6.80325 10.6961 7.00012 10.9379 7.00012ZM9.93435 4.68446C10.1052 4.51361 10.1052 4.23664 9.93432 4.06581C9.76348 3.89497 9.48651 3.89496 9.31566 4.06577L7.56219 5.81887C7.38686 5.73394 7.19482 5.6891 7 5.68762C6.74042 5.68762 6.48666 5.76459 6.27082 5.90881C6.05498 6.05303 5.88675 6.25802 5.78741 6.49785C5.68807 6.73767 5.66208 7.00157 5.71272 7.25617C5.76337 7.51077 5.88837 7.74464 6.07193 7.9282C6.25548 8.11175 6.48935 8.23676 6.74395 8.2874C6.99855 8.33804 7.26245 8.31205 7.50228 8.21271C7.7421 8.11337 7.94709 7.94514 8.09131 7.7293C8.23553 7.51346 8.3125 7.25971 8.3125 7.00012C8.31102 6.8053 8.26619 6.61326 8.18125 6.43793L9.93435 4.68446ZM7 7.43762C6.91348 7.43762 6.82889 7.41196 6.75694 7.36389C6.685 7.31581 6.62892 7.24748 6.59581 7.16754C6.56269 7.0876 6.55403 6.99963 6.57091 6.91477C6.58779 6.8299 6.62946 6.75194 6.69065 6.69076C6.75183 6.62957 6.82979 6.58791 6.91465 6.57102C6.99952 6.55414 7.08749 6.56281 7.16743 6.59592C7.24737 6.62903 7.3157 6.68511 7.36377 6.75706C7.41185 6.829 7.4375 6.91359 7.4375 7.00012C7.4375 7.11615 7.39141 7.22743 7.30936 7.30948C7.22732 7.39152 7.11604 7.43762 7 7.43762ZM7 3.50012C7.36688 3.50019 7.73081 3.55794 8.07861 3.67068C8.25496 3.72785 8.45169 3.69212 8.58277 3.56104C8.7998 3.344 8.74293 2.97864 8.45364 2.87609C7.94327 2.69516 7.40195 2.61008 6.85713 2.62714C6.10535 2.65068 5.37238 2.86791 4.72918 3.25781C4.08597 3.6477 3.55432 4.19704 3.18569 4.85266C2.88873 5.38081 2.70566 5.96352 2.64626 6.56335C2.62244 6.80388 2.82076 7.00012 3.06246 7.00012C3.3042 7.00012 3.49742 6.80355 3.52782 6.56373C3.62503 5.79682 3.974 5.07893 4.52641 4.52652C5.18254 3.8704 6.0721 3.50128 7 3.50012Z" fill="#FAF9F6"/>
<path d="M7 13.125C5.78859 13.125 4.60439 12.7658 3.59713 12.0928C2.58988 11.4197 1.80483 10.4631 1.34124 9.34394C0.877654 8.22474 0.756358 6.99321 0.992693 5.80507C1.22903 4.61694 1.81238 3.52557 2.66897 2.66897C3.52557 1.81238 4.61694 1.22903 5.80507 0.992693C6.99321 0.756358 8.22474 0.877654 9.34394 1.34124C10.4631 1.80483 11.4197 2.58988 12.0928 3.59713C12.7658 4.60439 13.125 5.78859 13.125 7C13.1231 8.62389 12.4772 10.1807 11.329 11.329C10.1807 12.4772 8.62389 13.1231 7 13.125ZM7 1.75C5.96165 1.75 4.94662 2.05791 4.08326 2.63479C3.2199 3.21166 2.547 4.0316 2.14964 4.99091C1.75228 5.95023 1.64831 7.00583 1.85088 8.02423C2.05345 9.04263 2.55347 9.97809 3.28769 10.7123C4.02192 11.4465 4.95738 11.9466 5.97578 12.1491C6.99418 12.3517 8.04978 12.2477 9.00909 11.8504C9.9684 11.453 10.7883 10.7801 11.3652 9.91675C11.9421 9.05339 12.25 8.03835 12.25 7C12.2484 5.60811 11.6947 4.2737 10.7105 3.28948C9.72631 2.30527 8.39189 1.75162 7 1.75Z" fill="#FAF9F6"/>
</svg>
