<svg width="24" height="24" viewBox="0 0 24 24" fill="none" xmlns="http://www.w3.org/2000/svg">
<path d="M5 12C5 9.36032 5 8.04012 5.8204 7.22042C6.6408 6.40072 7.9603 6.40002 10.6 6.40002H13.4C16.0397 6.40002 17.3599 6.40002 18.1796 7.22042C18.9993 8.04082 19 9.36032 19 12C19 14.6397 19 15.9599 18.1796 16.7796C17.3592 17.5993 16.0397 17.6 13.4 17.6H10.6C7.9603 17.6 6.6401 17.6 5.8204 16.7796C5.0007 15.9592 5 14.6397 5 12Z" stroke="#494949" stroke-width="1.25"/>
<path d="M10.6 14.8H7.8M13.4 14.8H12.35M5 10.6H19" stroke="#494949" stroke-width="1.25" stroke-linecap="round"/>
</svg>
